<?xml version="1.0" encoding="UTF-8"?>
<!-- Created with Inkscape (http://www.inkscape.org/) -->
<svg xmlns:cc="http://creativecommons.org/ns#" xmlns="http://www.w3.org/2000/svg" xmlns:inkscape="http://www.inkscape.org/namespaces/inkscape" xmlns:rdf="http://www.w3.org/1999/02/22-rdf-syntax-ns#" xmlns:svg="http://www.w3.org/2000/svg" xmlns:sodipodi="http://sodipodi.sourceforge.net/DTD/sodipodi-0.dtd" xmlns:dc="http://purl.org/dc/elements/1.1/" width="900" height="300" viewBox="0 0 900.00002 300" id="svg2" version="1.1" inkscape:version="0.91 r13725" sodipodi:docname="mpier.svg">
  <defs id="defs4"/>
  <sodipodi:namedview id="base" pagecolor="#ffffff" bordercolor="#666666" borderopacity="1.0" inkscape:pageopacity="0.0" inkscape:pageshadow="2" inkscape:zoom="0.7" inkscape:cx="351.20663" inkscape:cy="300.71429" inkscape:document-units="px" inkscape:current-layer="layer1" showgrid="false" units="px" inkscape:window-width="1920" inkscape:window-height="1148" inkscape:window-x="-8" inkscape:window-y="-8" inkscape:window-maximized="1"/>
  <metadata id="metadata7">
    <rdf:RDF>
      <cc:Work rdf:about="">
        <dc:format>image/svg+xml</dc:format>
        <dc:type rdf:resource="http://purl.org/dc/dcmitype/StillImage"/>
        <dc:title/>
      </cc:Work>
    </rdf:RDF>
  </metadata>
  <g inkscape:label="Ebene 1" inkscape:groupmode="layer" id="layer1" transform="translate(0,-752.36216)">
    <g id="g3367" transform="matrix(0.08101634,0,0,-0.08101634,-6.1962966,1030.7672)" style="fill:#000000;stroke:none">
      <path id="path3369" d="M 1479,3136 C 585,3007 -1,2167 190,1290 250,1013 384,768 589,557 1037,97 1710,-34 2300,225 c 219,95 444,274 596,470 224,291 340,689 306,1053 -65,691 -552,1234 -1232,1372 -135,28 -358,35 -491,16 z m 454,-51 c 144,-26 255,-62 392,-129 164,-81 283,-165 405,-286 121,-122 206,-241 286,-405 146,-300 186,-621 118,-953 C 3086,1079 2958,826 2796,642 2391,183 1759,19 1180,222 792,359 449,691 299,1075 c -129,329 -137,700 -22,1029 240,689 942,1105 1656,981 z" inkscape:connector-curvature="0"/>
      <path id="path3371" d="M 1454,2945 C 1275,2914 1077,2833 920,2727 822,2661 668,2511 597,2412 489,2262 409,2086 369,1910 339,1783 333,1551 354,1419 407,1100 579,795 823,592 948,487 995,457 1009,474 c 9,11 3,24 -29,61 -67,78 -93,138 -98,232 -4,75 -2,88 22,138 l 27,55 59,-45 c 103,-80 127,-120 117,-198 -5,-33 -15,-50 -51,-84 -55,-51 -62,-91 -20,-120 14,-10 33,-26 42,-36 56,-60 74,-75 113,-87 24,-8 59,-23 78,-34 31,-18 52,-19 326,-17 261,1 498,-9 548,-25 29,-9 30,22 3,78 -38,78 -51,162 -36,246 l 11,69 97,5 c 65,4 116,13 154,27 115,44 143,86 140,208 -2,78 -1,84 23,105 17,15 25,31 24,48 -2,14 1,34 4,46 4,12 1,36 -8,57 -21,51 -19,83 7,101 12,9 17,16 10,16 -6,0 -21,-9 -33,-21 -21,-21 -21,-31 -4,-86 6,-17 3,-23 -9,-23 -9,0 -33,-15 -53,-34 -21,-18 -45,-36 -53,-39 -11,-4 -12,-6 -1,-6 7,-1 29,13 48,29 18,16 45,30 58,30 28,0 32,-12 10,-30 -12,-10 -12,-15 0,-34 8,-13 12,-26 8,-29 -10,-10 -52,-8 -74,3 -13,8 -19,7 -19,0 0,-6 14,-13 30,-17 34,-6 34,-7 18,-36 -6,-12 -12,-57 -13,-99 -1,-71 -3,-80 -29,-107 -68,-70 -231,-101 -351,-66 -119,34 -257,123 -382,247 -54,52 -63,67 -63,97 l 0,35 -20,-22 c -31,-33 -67,-29 -88,9 -9,17 -34,54 -54,82 -49,66 -61,106 -56,179 4,49 9,64 35,89 66,66 144,29 175,-84 l 15,-52 45,0 c 28,0 53,-7 65,-16 80,-71 151,-42 173,69 7,32 20,66 31,77 10,11 28,42 39,69 23,51 22,95 -6,148 -19,37 -3,71 41,87 19,7 52,32 73,56 29,33 50,47 87,56 32,8 61,25 87,51 28,28 46,38 70,38 18,0 47,9 65,20 18,10 34,16 37,11 24,-38 76,-192 76,-223 0,-37 38,-138 109,-288 42,-89 41,-114 -6,-139 -44,-24 -37,-27 12,-7 66,28 60,66 -45,296 -38,82 -55,134 -60,180 -4,36 -19,91 -33,122 -23,52 -24,61 -12,84 9,18 10,35 4,56 -4,16 -6,42 -3,57 5,22 -4,39 -45,88 -51,61 -61,86 -40,99 13,8 5,69 -12,90 -16,20 -48,17 -87,-6 -18,-11 -42,-20 -53,-20 -19,0 -19,1 -5,22 9,12 16,25 16,29 0,12 -55,17 -97,10 -53,-10 -63,0 -51,56 7,32 31,67 108,155 55,62 100,116 100,119 0,10 -155,83 -229,108 -150,51 -219,63 -406,66 -127,3 -204,0 -261,-10 z m 506,-54 c 142,-33 320,-103 320,-125 0,-6 -33,-46 -73,-89 l -72,-77 -63,25 c -219,90 -503,98 -733,20 -201,-69 -392,-206 -520,-374 -70,-92 -154,-267 -185,-386 -24,-88 -27,-119 -27,-260 -1,-176 10,-242 63,-385 32,-90 84,-184 149,-270 26,-35 39,-60 34,-70 -3,-8 -8,-53 -11,-100 -3,-68 0,-97 17,-144 l 20,-58 -52,44 c -72,62 -203,220 -260,316 -258,429 -246,964 30,1381 71,107 218,260 321,334 158,114 352,196 542,231 118,22 382,15 500,-13 z m -87,-255 c 81,-16 214,-59 230,-75 6,-6 -1,-15 -19,-24 -24,-12 -32,-13 -61,0 -152,63 -409,77 -584,30 -172,-45 -320,-130 -445,-252 -262,-260 -358,-653 -243,-1000 30,-90 91,-212 135,-272 28,-37 29,-43 11,-68 -13,-17 -18,-13 -61,48 -62,86 -129,232 -157,337 -27,107 -37,308 -19,418 71,443 413,787 860,865 61,11 284,6 353,-7 z m 28,-107 c 120,-28 123,-31 88,-98 l -29,-53 0,36 c 0,41 -1,41 -38,22 -53,-28 -120,-117 -123,-163 -1,-10 -6,-3 -11,15 -6,17 -16,32 -22,32 -25,0 -90,-66 -112,-114 -30,-65 -34,-160 -6,-171 14,-5 11,-9 -17,-21 -18,-8 -35,-14 -37,-14 -1,0 4,17 13,37 14,36 15,134 0,149 -9,10 -65,-37 -93,-79 -14,-21 -28,-54 -31,-73 -6,-34 -23,-58 -23,-32 0,7 -5,20 -10,28 -8,12 -15,9 -46,-20 -45,-43 -73,-102 -74,-155 l -1,-40 -16,30 c -22,42 -20,41 -49,14 -36,-33 -74,-116 -74,-164 l -1,-40 -15,28 c -8,15 -19,27 -24,27 -25,0 -89,-128 -90,-179 0,-32 -1,-33 -18,-17 -18,15 -20,15 -35,-2 -31,-34 -57,-106 -57,-161 0,-53 0,-53 -18,-31 -16,20 -19,20 -31,6 -7,-8 -23,-41 -36,-72 l -23,-57 -22,49 c -57,129 -83,308 -69,469 40,429 384,780 819,835 90,12 229,3 331,-21 z m 214,-46 c -11,-36 -30,-63 -76,-108 -34,-33 -64,-55 -66,-49 -2,6 6,36 17,67 21,56 94,137 124,137 13,0 13,-6 1,-47 z m 145,-51 c 0,-43 -127,-107 -200,-100 l -35,3 55,42 c 30,23 71,46 90,51 44,13 90,15 90,4 z m -320,-37 c 0,-42 -26,-92 -76,-145 -26,-27 -51,-50 -55,-50 -12,0 0,57 22,109 18,42 80,111 100,111 5,0 9,-11 9,-25 z m 468,-33 c 2,-13 -4,-32 -13,-43 -17,-18 -15,-21 36,-81 30,-35 61,-68 69,-75 26,-21 -7,-40 -111,-67 -303,-77 -454,-199 -679,-553 -28,-46 -55,-83 -58,-83 -11,0 -52,43 -52,55 0,18 111,183 195,290 175,223 360,415 517,536 68,52 91,57 96,21 z m -139,-11 c -1,-3 -49,-51 -108,-106 -196,-184 -356,-373 -507,-596 -76,-111 -89,-126 -115,-127 -96,-3 -154,-122 -118,-243 11,-36 10,-39 -26,-83 -43,-52 -33,-61 18,-16 37,32 47,36 47,20 0,-15 -55,-63 -133,-117 -38,-26 -63,-49 -57,-51 16,-6 126,53 177,95 24,20 45,34 47,32 17,-20 26,-59 26,-116 1,-37 7,-97 15,-133 18,-81 19,-154 3,-167 -7,-6 -60,-13 -118,-16 -111,-6 -200,-25 -200,-42 1,-5 11,-9 23,-7 12,2 85,6 163,10 91,5 146,12 156,20 26,21 27,61 7,180 -10,63 -19,129 -19,148 0,32 1,33 24,23 34,-16 90,-213 91,-321 0,-119 13,-113 -281,-111 -135,1 -247,3 -249,5 -2,2 3,26 10,55 21,80 8,111 -91,213 -46,48 -84,90 -84,94 0,3 15,6 34,6 44,0 94,17 134,47 35,26 81,107 68,120 -16,17 -130,4 -176,-20 l -45,-23 0,53 c 0,29 1,53 3,53 1,0 7,-11 12,-25 8,-22 15,-25 58,-25 104,0 201,63 227,148 6,21 4,22 -52,23 l -58,0 45,13 c 67,18 117,52 145,100 14,24 25,46 25,49 0,3 -16,9 -36,13 l -36,7 44,19 c 50,22 93,61 115,101 17,33 18,31 -22,45 -26,9 -27,11 -7,11 31,1 105,38 130,64 11,12 28,36 36,52 15,29 15,30 -7,36 -21,6 -21,7 -2,13 11,4 44,19 74,33 56,28 106,88 96,115 -4,10 6,18 35,27 50,15 108,65 126,108 10,22 22,33 43,38 41,9 107,59 125,94 10,18 26,32 44,35 15,4 40,15 56,25 25,17 68,18 65,2 z m -319,-36 c 0,-8 -4,-15 -10,-15 -5,0 -7,7 -4,15 4,8 8,15 10,15 2,0 4,-7 4,-15 z m 140,-14 c 0,-5 -18,-25 -40,-44 -40,-34 -129,-67 -180,-67 -23,0 -23,1 11,36 45,47 83,67 144,75 28,3 53,7 58,8 4,0 7,-3 7,-8 z m -320,-38 c 0,-16 -9,-47 -19,-69 -20,-43 -86,-124 -103,-124 -10,0 -3,54 14,109 12,38 73,111 94,111 9,0 14,-11 14,-27 z m 13,-74 c -5,-18 -15,-35 -22,-37 -9,-3 -8,4 3,26 9,17 16,39 17,49 0,10 3,13 5,6 3,-6 1,-26 -3,-44 z m 132,-28 c 10,-17 -62,-79 -112,-94 -66,-22 -123,-31 -123,-20 0,13 70,78 100,94 49,25 124,36 135,20 z m -315,-46 c 0,-25 -6,-60 -14,-79 -15,-35 -73,-106 -87,-106 -13,0 -11,65 3,111 11,39 71,119 89,119 5,0 9,-20 9,-45 z m 902,-77 c -9,-9 -12,-7 -12,12 0,19 3,21 12,12 9,-9 9,-15 0,-24 z m -42,13 c 0,-18 -53,-51 -81,-51 -50,0 -32,43 21,53 44,8 60,7 60,-2 z m -150,-31 c 0,-46 -63,-100 -115,-100 -26,0 -27,10 -10,67 2,7 26,19 52,27 59,18 73,19 73,6 z m -864,-36 c 11,-45 -3,-104 -40,-160 -20,-30 -41,-54 -46,-54 -14,0 -13,126 1,153 19,36 59,87 69,87 5,0 13,-12 16,-26 z m 292,-6 c -14,-18 -44,-43 -66,-56 -45,-25 -152,-42 -152,-24 0,17 91,92 124,101 17,5 51,10 75,10 l 44,1 -25,-32 z m -254,-80 c 5,-20 13,-28 29,-29 13,0 4,-6 -23,-15 -25,-7 -46,-14 -47,-14 0,0 6,23 15,51 9,28 17,47 18,42 1,-4 5,-20 8,-35 z m 646,21 c 0,-55 -64,-129 -111,-129 -9,0 -21,-11 -27,-25 -14,-29 -62,-38 -86,-15 -13,13 90,117 154,155 66,40 70,41 70,14 z m -820,-144 c 0,-63 -65,-184 -87,-162 -9,10 -16,103 -10,129 4,13 21,45 38,72 32,48 32,48 45,25 7,-13 13,-42 14,-64 z m 290,66 c 0,-19 -54,-73 -93,-92 -22,-12 -65,-23 -95,-26 l -56,-6 23,31 c 44,63 112,99 189,101 17,1 32,-3 32,-8 z m -258,-105 c 0,-34 2,-36 37,-37 l 36,-1 -35,-7 c -19,-4 -45,-11 -56,-15 -21,-6 -22,-6 -8,31 7,21 13,47 14,57 0,35 12,8 12,-28 z m 566,-88 c 3,-32 -3,-44 -47,-92 -44,-49 -64,-86 -46,-86 3,0 35,30 71,66 64,64 66,68 60,105 -6,35 -4,39 14,39 24,0 40,-35 40,-88 0,-27 -10,-49 -45,-93 -38,-49 -45,-64 -45,-102 0,-28 -7,-53 -18,-67 -15,-19 -21,-20 -47,-10 -16,6 -38,20 -48,31 -10,10 -27,19 -38,19 -16,0 -19,4 -13,18 4,9 10,51 13,92 7,84 7,84 69,158 52,61 76,64 80,10 z m -740,7 c 27,-58 3,-177 -41,-214 -15,-12 -19,-9 -32,22 -20,49 -19,93 6,146 34,77 49,86 67,46 z m 292,14 c 0,-26 -47,-73 -94,-95 -51,-24 -136,-33 -136,-14 0,25 75,91 119,104 56,18 111,20 111,5 z m -249,-102 c -8,-8 -11,-3 -11,19 1,25 2,27 11,11 8,-14 8,-22 0,-30 z m 47,-51 c -26,-7 -55,-19 -64,-27 -16,-12 -17,-12 -11,4 4,10 7,23 7,28 0,5 26,9 58,8 l 57,0 -47,-13 z m 102,-22 c 0,-31 -73,-91 -130,-108 -107,-32 -126,-15 -64,54 38,42 99,68 162,69 23,1 32,-3 32,-15 z m -299,-57 c 6,-23 8,-59 5,-80 -7,-45 -42,-117 -56,-117 -5,0 -17,15 -27,33 -30,58 -17,157 30,215 15,19 35,-3 48,-51 z m 659,-27 c -7,-16 -18,-31 -25,-34 -25,-9 -23,32 4,76 l 26,43 3,-29 c 2,-15 -2,-41 -8,-56 z m -615,-30 c -4,-12 4,-20 27,-27 23,-8 27,-11 13,-12 -11,-1 -30,-8 -42,-16 -22,-15 -22,-15 -20,45 2,51 4,57 15,43 6,-9 10,-24 7,-33 z m 155,-51 c 0,-30 -45,-80 -92,-103 -57,-29 -138,-36 -138,-13 0,24 70,95 103,106 67,21 127,26 127,10 z m -304,-85 c 10,-27 15,-60 12,-87 -6,-52 -36,-119 -52,-114 -6,1 -21,23 -34,47 -28,54 -25,115 8,180 25,49 39,44 66,-26 z m 234,-89 c 0,-14 -30,-62 -52,-81 -39,-36 -85,-54 -137,-54 -44,0 -49,2 -44,20 11,42 67,91 118,105 52,14 115,19 115,10 z m 748,-360 c 42,-25 98,-52 125,-61 38,-13 47,-20 42,-33 -14,-36 -35,-138 -35,-172 0,-20 9,-67 21,-104 11,-37 18,-69 16,-71 -2,-3 -26,0 -53,7 -55,12 -199,14 -352,4 l -103,-7 7,38 c 9,50 11,54 35,54 11,0 31,11 44,25 29,28 33,84 10,128 -10,21 -12,34 -5,47 18,34 10,127 -20,245 -16,64 -30,123 -30,131 0,8 50,-30 111,-86 61,-55 145,-121 187,-145 z M 1468,594 c 15,-4 22,-14 22,-31 0,-37 27,-81 61,-98 38,-20 37,-59 -4,-89 -41,-30 -124,-27 -148,6 -39,51 -49,167 -17,205 11,14 48,17 86,7 z m -145,-76 c -4,-53 -1,-83 10,-110 17,-39 14,-48 -15,-48 -52,0 -89,96 -73,190 7,39 8,40 45,40 l 38,0 -5,-72 z m 341,56 c 18,-46 -8,-94 -51,-94 -31,0 -73,42 -73,74 0,23 5,25 48,29 26,2 52,4 58,5 7,1 15,-5 18,-14 z m -570,-21 c -9,-36 -9,-36 -33,-28 -20,6 -28,34 -14,48 3,4 17,7 30,7 20,0 23,-3 17,-27 z m 111,-53 c 0,-66 -3,-80 -16,-80 -35,0 -52,26 -57,88 -5,64 -2,68 53,71 19,1 21,-5 20,-79 z" inkscape:connector-curvature="0"/>
      <path id="path3373" d="m 1696,2844 c -9,-69 -7,-114 4,-114 14,0 17,13 24,93 4,52 2,67 -8,67 -8,0 -16,-18 -20,-46 z" inkscape:connector-curvature="0"/>
      <path id="path3375" d="m 1470,2862 c 0,-24 24,-128 31,-136 18,-20 21,5 8,73 -8,46 -17,71 -26,71 -7,0 -13,-4 -13,-8 z" inkscape:connector-curvature="0"/>
      <path id="path3377" d="m 1931,2838 c -5,-13 -18,-47 -30,-76 -19,-46 -19,-53 -5,-50 15,3 64,106 64,135 0,21 -20,15 -29,-9 z" inkscape:connector-curvature="0"/>
      <path id="path3379" d="m 1247,2814 c -8,-9 61,-144 73,-144 16,0 12,16 -22,85 -32,64 -38,71 -51,59 z" inkscape:connector-curvature="0"/>
      <path id="path3381" d="m 2128,2783 c -71,-84 -88,-111 -74,-116 14,-5 106,101 106,123 0,15 -15,12 -32,-7 z" inkscape:connector-curvature="0"/>
      <path id="path3383" d="m 1036,2712 c -8,-14 82,-122 102,-122 22,0 13,16 -41,75 -36,39 -56,55 -61,47 z" inkscape:connector-curvature="0"/>
      <path id="path3385" d="m 841,2571 c -9,-6 6,-22 54,-56 45,-32 70,-44 76,-38 7,7 0,18 -23,34 -18,12 -47,33 -63,45 -19,15 -35,20 -44,15 z" inkscape:connector-curvature="0"/>
      <path id="path3387" d="m 674,2389 c -8,-14 -9,-14 70,-43 42,-16 73,-23 79,-17 11,11 4,16 -77,46 -42,16 -67,21 -72,14 z" inkscape:connector-curvature="0"/>
      <path id="path3389" d="m 540,2177 c 0,-10 22,-17 77,-25 43,-6 81,-8 85,-6 19,12 5,22 -39,28 -27,4 -65,9 -85,12 -29,4 -38,2 -38,-9 z" inkscape:connector-curvature="0"/>
      <path id="path3391" d="m 496,1961 c -22,-3 -41,-12 -44,-19 -3,-9 13,-11 70,-6 85,7 98,10 98,24 0,11 -59,11 -124,1 z" inkscape:connector-curvature="0"/>
      <path id="path3393" d="m 496,1744 c -62,-21 -92,-41 -81,-52 9,-10 165,51 165,64 0,18 -1,18 -84,-12 z" inkscape:connector-curvature="0"/>
      <path id="path3395" d="m 492,1516 c -76,-52 -76,-52 -68,-65 9,-13 146,77 146,95 0,21 -9,17 -78,-30 z" inkscape:connector-curvature="0"/>
      <path id="path3397" d="m 536,1289 c -56,-63 -63,-74 -48,-83 14,-8 126,124 115,135 -7,7 -29,-11 -67,-52 z" inkscape:connector-curvature="0"/>
      <path id="path3399" d="m 664,1139 c -7,-8 -26,-42 -43,-76 -30,-61 -39,-93 -23,-93 13,0 84,146 81,165 -3,15 -6,16 -15,4 z" inkscape:connector-curvature="0"/>
      <path id="path3401" d="m 766,970 c -13,-35 -43,-176 -39,-182 12,-21 23,0 42,79 13,55 17,92 11,102 -8,14 -9,14 -14,1 z" inkscape:connector-curvature="0"/>
      <path id="path3403" d="m 2350,1829 c -13,-6 -38,-20 -55,-33 -16,-13 -48,-35 -69,-50 -21,-14 -34,-26 -29,-26 6,0 41,20 78,44 82,55 119,65 146,40 10,-9 19,-13 19,-7 0,14 -34,43 -51,42 -8,0 -25,-5 -39,-10 z" inkscape:connector-curvature="0"/>
      <path id="path3405" d="m 2401,1747 c -7,-10 -23,-17 -35,-17 -12,0 -39,-12 -61,-27 -22,-15 -62,-39 -89,-54 l -49,-27 46,-6 c 26,-3 67,-8 91,-11 24,-3 56,-3 70,1 24,6 26,10 26,59 0,30 5,55 11,57 6,2 10,12 8,22 -4,18 -5,18 -18,3 z m -21,-82 0,-35 -65,0 c -36,0 -65,4 -65,8 0,9 98,60 118,61 7,1 12,-12 12,-34 z" inkscape:connector-curvature="0"/>
      <path id="path3407" d="m 1494,1445 c -41,-63 -25,-163 33,-197 19,-12 39,-32 44,-45 10,-26 39,-28 47,-4 3,10 0,12 -11,8 -24,-9 -114,83 -122,126 -11,57 19,127 55,127 29,0 40,-30 33,-92 -4,-37 -2,-58 6,-63 17,-10 26,2 13,18 -7,8 -9,33 -5,65 7,61 -6,82 -48,82 -19,0 -34,-8 -45,-25 z" inkscape:connector-curvature="0"/>
      <path id="path3409" d="m 2456,1438 c -20,-65 -11,-118 19,-118 20,0 125,52 125,62 0,9 -70,-18 -84,-33 -6,-5 -21,-9 -34,-9 -24,0 -25,2 -18,55 6,50 1,74 -8,43 z" inkscape:connector-curvature="0"/>
    </g>
    <text xml:space="preserve" style="font-style:normal;font-variant:normal;font-weight:normal;font-stretch:normal;font-size:71.13467407px;line-height:100%;font-family:'Bodoni MT';-inkscape-font-specification:'Bodoni MT, Normal';text-align:start;letter-spacing:0px;word-spacing:0px;writing-mode:lr-tb;text-anchor:start;fill:#000000;fill-opacity:1;stroke:none;stroke-width:1px;stroke-linecap:butt;stroke-linejoin:miter;stroke-opacity:1" x="273.51038" y="846.42444" id="text3437" sodipodi:linespacing="100%">
            <tspan sodipodi:role="line" id="tspan3439" x="273.51038" y="846.42444">Max-Planck-Institut</tspan>
            <tspan sodipodi:role="line" x="273.51038" y="917.55908" id="tspan3441">für europäische</tspan>
            <tspan sodipodi:role="line" x="273.51038" y="988.69379" id="tspan3443">Rechtsgeschichte</tspan>
        </text>
  </g>
</svg>