<svg xmlns="http://www.w3.org/2000/svg" viewBox="0 0 1000 200">
    <defs>
        <style>.minerva-base-style{}</style>
    </defs>
    <g transform="translate(0 0) scale(0.9523809523809523) translate(0 0)" style="fill: #656767;">
        <title>minerva</title>
        <path d="M105,0A105,105,0,1,0,210,105,105.1,105.1,0,0,0,105,0Zm0,207.1A102.1,102.1,0,1,1,207.1,105,102.2,102.2,0,0,1,105,207.1Z"/>
        <path class="minerva-base-style" d="M166.6,97c-1.4-3.1-.5-5.1-.9-7.3s-2.7-7-4.3-10.8c-.7-1.7,3.8-1.3.4-7.6,0-.2,4.7-2,0-5.5a26.4,26.4,0,0,1-6-6.7,1,1,0,0,1,0-1.3c2.7-2.4,2.8-5.8-.1-7.5s-4.5,0-6.7,1.4c-.7.5-1.1.8-1.9.5L145.3,51c2.7-2.6,3.3-5.2,3.1-5.6s-4.6-1.3-10.2,1l-.4-.3c2.3-3.9,1-6.7.9-6.9h-.1A81,81,0,0,1,151,25.9h.1c.2-.3.3-.6-.2-.9l-1-.6A92.4,92.4,0,0,0,12.7,105c0,29.5,15,57.9,39.4,75.6a13.5,13.5,0,0,0,2.8,1.6A1.1,1.1,0,0,0,56,182l.3-.5a1,1,0,0,0,.3-.8c0-.7-.9-1.3-2.1-3a27.7,27.7,0,0,1-4.7-15.1,22.1,22.1,0,0,1,4.5-13.7c3.7,3.9,11.7,10.9,11.5,17.4s-6.9,6.8-5.4,12.2c.9,3.4,3.4,2,3.9,4.6.7,4.4,6.7,7.3,9.3,6.9.7-.1,1.2.4,2.4,1.7s6.2,1.6,8.2,1.2,4.1,1.4,8,.9,6.1-.9,8.2-.9,22.5-.3,36,1.8c2.4.4,3.1-.7,2.1-2.5-4.9-8.6-5.6-15.8-2.8-25,5,.4,12.2,1.7,21.6-4a11,11,0,0,0,5.1-9.5c-.1-2.1-1-4.7-.5-6.7s1.3-2.7,2.1-3.2c3.6-2.6,1-4.6.4-4.8a3.4,3.4,0,0,0,1.1-4.6c-.7-.7-2.7-6.2-.4-7.3s5.3-1.8,8.1-3.1a4.5,4.5,0,0,0,2.4-6C174.2,114.4,166.8,97.4,166.6,97ZM64.7,179.1c-.7.2-2.9.3-2.4-2.7s2.3-2.6,3.3-1.6S64.9,177.6,64.7,179.1Zm87-125.9c1.2-.8,2.5-1.1,3.3-.4,2.6,2.6-2.9,4.1-1.8,6.1a30.7,30.7,0,0,0,7.5,8.4c1.2,1,1.4,3.1-3.3,4.1s-23.6,5.9-33.6,16.5c-12.5,13.2-20.4,30.3-21.5,28s-3.6-2.8-3.2-3.5C117,81.6,145.1,57.3,151.7,53.2Zm8.2,21.7c-1,2.9-9.1,5.5-8.7,3.5s0-2.2.6-2.3,3.5-1.1,7.5-2.1C159.7,73.9,160.2,74.1,159.9,74.9Zm-20.6,5.3c-.2-1.2,8.5-4.1,8.8-3.3s-1.8,6-4.7,7-4.7.9-4.6.4A11,11,0,0,0,139.3,80.2ZM119,125.8c-4,2.5-6.2-2.2-6.8-3.1a3.7,3.7,0,0,1-.5-3.1c.3-1.4.5-3.3-.4-9.3-.4-2.7,5-9.2,6.3-10.4s3.1.6,3.2,2.6c.3,3.6-1.8,5.6-3.9,7.2s-3.1,4.4-2.6,5.1a1.5,1.5,0,0,0,1.9-.9c1.5-3.3,6-4.9,6.7-6.7s.3-4.4.2-5.6.9-1.2,1.6-1.1,1.4,1.4,1.8,2.7c2.9,7.5-4.3,12-5.5,13.8S122.1,123.9,119,125.8Zm6.1-29.1c-2.2,1.5-5.3-.5-4.7-1.4a43.7,43.7,0,0,1,11.5-11c3.4-2.1,3.8-2.3,4-1.1a10.6,10.6,0,0,1-2.6,7.5c-2.3,2.5-4.6,2.3-5.8,2.6S126.7,95.6,125.1,96.7Zm-19.3,25.6c-1-.2-1.4-2.1-1.2-2.9s3.1-5.2,4-6.4a.5.5,0,0,1,.8.3C110,117.4,109.4,123.1,105.8,122.3ZM138,48.2a17.7,17.7,0,0,1,7.5-1.6c.8.1-1.9,4.8-6.6,6.8s-8.5,2.5-8.9,2.3S134.1,49.9,138,48.2ZM54.7,126.5c-1.5-1.7-2.8-2.6-2.9-2.5a22.4,22.4,0,0,0-3.6,8.9A65.4,65.4,0,0,1,40.7,105C39.3,69.6,69,41.1,105.2,41.2a56.8,56.8,0,0,1,22.4,4.6,31.3,31.3,0,0,0-3.7,6.6c0-1.9-.5-3.4-.4-4.6s-5.1.9-9.7,8.3a19.9,19.9,0,0,0-2.2,5.3c-.1-2.8-.7-4.9-.9-4.9a16.1,16.1,0,0,0-8.5,8.8,22.4,22.4,0,0,0-1.1,3.4c-.2-1.9-.7-3.2-.9-3.2s-5.9,2.3-8.6,8.9A15.4,15.4,0,0,0,90.5,79c-.5-2.3-1.4-3.7-1.7-3.4-1.9,2.4-5.7,3.5-7.6,9.6a13.2,13.2,0,0,0-.7,4.2c-.8-2-2-3.2-2.3-3.2s-6.1,5.5-7,10.9a15.8,15.8,0,0,0,.2,5.8c-1.1-1.8-2.5-3-3.1-4.8-.9.5-5.7,5-5.8,10.7a19.7,19.7,0,0,0,.7,6.1c-1.6-2.9-3.8-4.2-4.1-4.1s-4,4.1-4.8,11.1A11.8,11.8,0,0,0,54.7,126.5Zm74.1-79.7c2.8-3.4,7.6-6.1,8.2-5.8s-.8,5.6-3.9,8.6-8.1,6.2-8.6,6.1S126.2,49.8,128.8,46.8Zm-9.3,13a21,21,0,0,0-5.6,6.4c-.5.9-1.9-5,1.7-10.6,2.2-3.5,6.6-6.6,6.5-6.2S124.2,56,119.5,59.8Zm-10.1,7.5c-3.4,5.1-3.6,3.3-7.3,8.3-.2.2-.2-6.5,1.1-9.4,2.1-4.7,5.7-7.4,6.2-7.5S111.3,64.5,109.4,67.3ZM98.3,77.4c-1.7,3-3.3,2.3-6.2,6.7-.3.4-1.1-3.6.7-9.1a12.6,12.6,0,0,1,5.9-6.9C99.3,68,100.4,73.8,98.3,77.4ZM88,88.1c-1.8,3.9-2.9,4-5,6.4-.3.4-1.8-3.7-.4-8.8s4-5.6,5.3-7S89.9,84,88,88.1Zm-8.4,6.6a10.3,10.3,0,0,1-.4,3c-1.3,4.3-3.9,6.2-5.3,8.1a15.7,15.7,0,0,1-1.6-5.8,15.2,15.2,0,0,1,5.2-11.2C78.3,88.8,79.6,92,79.6,94.7Zm-8.5,12.8A14.9,14.9,0,0,1,66,118.3a17.7,17.7,0,0,1-2.2-7.6c-.2-6.3,2.4-8.5,3.6-9.7C67.9,102.8,71.1,104.2,71.1,107.5ZM59,113.8c1.8.9,3.9,3.4,4.1,8.2s-3.2,8.7-4.6,9.4c-.9-3.7-2.6-4.4-2.6-8A18,18,0,0,1,59,113.8Zm7.3,12.5c4.6-2,9.6-1.7,9.8-1.5s-1.5,5.9-5.9,8.2-9.5,2.7-10,2.1S61.7,128.3,66.3,126.3Zm-.4-3.4c.3-1.5,3-6.5,7.1-8.3h0a18.4,18.4,0,0,1,9.4-1.5c.5.2-1.7,5.6-5.8,7.6S70.1,121.6,65.9,122.9Zm6.9-11.8c.2-.4,3.5-6.4,7.4-8.2a17.5,17.5,0,0,1,8.9-1.4c.3.1-1.8,5.4-6.2,7.6S72.6,111.6,72.8,111.1Zm8.9-11.9c-.3-.2,4.4-6.4,8.4-8.3a15.6,15.6,0,0,1,8.4-1c.3.3-1.9,5.5-6.5,7.5A24.2,24.2,0,0,1,81.7,99.2ZM92.4,87.4c-.2-.2,3.4-6.3,7.4-7.9s7.7-.1,8.9,0-1.3,4.5-6.6,6.4S93.1,87.7,92.4,87.4Zm12-11.4c.1-.3,4.1-5.9,8.1-7.3a16.4,16.4,0,0,1,9.2-.2c.5.2-2.8,5-7.7,6.5S104.3,76.3,104.4,76Zm12.1-9.9c-.5-.3,4.3-5.7,8.2-7.2a18,18,0,0,1,8.3-1c.3.2-2.5,4.9-7.1,6.7S117.1,66.5,116.5,66.1ZM50.2,175.3C28.6,158.1,15.6,132.1,15.6,105A89.3,89.3,0,0,1,146.4,25.8a.4.4,0,0,1,.1.7,97.3,97.3,0,0,0-10.2,11.4,73.1,73.1,0,0,0-31.3-7A74.3,74.3,0,0,0,30.9,105a72.1,72.1,0,0,0,17.9,48.2,23.1,23.1,0,0,0-1.9,9.4A25.6,25.6,0,0,0,50.2,175.3Zm.2-24.8h-.1A69.2,69.2,0,0,1,33.9,105,71.2,71.2,0,0,1,105,33.9a70.1,70.1,0,0,1,29.6,6.4,22.6,22.6,0,0,0-4.1,2.6A63.1,63.1,0,0,0,105,37.8,67.3,67.3,0,0,0,37.8,105c0,16.1,5,30.2,14.8,42C52.1,147.9,51.3,149.1,50.4,150.5Zm3.5-5.6c-1.3-1.2-4.1-4.3-4.4-8.3V136c0-4.3,1.9-8.6,2.4-9s5.3,3.3,5.4,8.7A14.4,14.4,0,0,1,53.9,144.9Zm8-7.2c3.9-1.8,9.6-1.4,9.3-1.1s-1.8,5.8-6.2,8a12.1,12.1,0,0,1-8.7,1.3C58.6,143.3,58.1,139.5,61.9,137.7Zm5.2,46.5c-.6-2.7-.4-6.3.5-7.3s4.9-1.2,5-.1-1.1,5.4.3,10.2C72.6,187.7,68.3,187.4,67.1,184.2Zm.3-11.1c-.3-2,1.6-3.9,1.6-8.2s-6.6-12.6-11.1-17.3a19.5,19.5,0,0,0,7.9-1.9c6.6-3.1,7.9-10.1,8.1-10.4a11,11,0,0,0-3.8-.4l.8-.4c6.4-3.5,8.1-11,7.8-11.1a17,17,0,0,0-4-.3l2-.7c6.8-2.7,8.7-10.3,8.5-10.6a16.1,16.1,0,0,0-3.5-.4l1.9-.8c6.2-3.1,8.4-10.1,8.1-10.3a10.5,10.5,0,0,0-3.3-.4,23.7,23.7,0,0,0,4.5-1.5c6.7-2.9,8.9-9.3,8.6-9.6a10.9,10.9,0,0,0-3-.5,34.5,34.5,0,0,0,4.4-1.3c6.6-2.2,9.2-8.5,8.8-8.6l-3.7-.8a24.5,24.5,0,0,0,6.6-1.3c7.1-2.4,9.6-6.7,9.8-8.6a6,6,0,0,0-2.3-.8,29.3,29.3,0,0,0,4.7-1.2c6.6-2.7,9.4-9.3,9.6-9.8a29.3,29.3,0,0,0,3.9-1.6l1.9-.9,1.6,1.1c1,.6,1.4.8.9,1.2C122,75,105,99.5,97.6,111.3c-.2.4-.6.3-1.3.3-7.9-.6-12.4,8.9-8.9,17.8-.4,1.8-4.2,5.3-4.5,5.5s-1,1.4.3,1.3,4.2-3.2,5.4-4.5c.4.6,2.2,2,1.3,2.8A63.6,63.6,0,0,1,76,145c-2.6,1.2,4.2,2.1,15.7-8.3.7-.6,1.5,2.4,2.5,3.7-2,6.5,2.9,19.1,2.1,23a2.8,2.8,0,0,1-2.8,2.7c-11.4.3-12.5-.3-18.3,1.4-2.7.8-2,2.6-.1,2.1s4.6-1.5,16.9-.7c3.1.1,6.5-.6,6.5-5.7s-3.6-18.4-2.4-20.3a6.9,6.9,0,0,0,3.5,1.4c-.2,4.5,7,19,3.8,27-1.2,3-6.4,2.7-15.4,1.8C72.7,171.6,67.7,174.9,67.4,173.1Zm35.1,9.9c-5.9,2-8.3-4.9-7.3-6.4s4.4,1,7.3-.9S106,181.8,102.5,183Zm-27,4.3c-.8-3.7-1.1-10,.4-11.5s4.9-.9,4.8.2c-.3,4.3-2.1,9.2,1.2,14.1C83.2,192,76.7,192.3,75.5,187.3Zm11.4,4.2c-1.6-.4-6-7.4-2.4-15.8.3-.8,5.8-.3,6.8,0s-.8,6.8,6.8,9.8C98.8,185.8,98,194.3,86.9,191.5Zm47.2-23.3c-2.5,8.8-3.8,12.3,0,21.9.5,1.3.9,2.3-.2,2.1-7.7-1.4-9.4-2.6-33.7-.6-1.7.2.6-3.4.3-5.8,2.2-.3,5.8-1.3,6.5-4.9s-2.1-7.6-1.8-8.2c3.5-6.7-.2-14.1-3.1-26.6-.3-1.2.4-1.7.9-1.1,15.6,16.9,25.5,20.2,30.9,21.8C134.4,167,134.3,167.6,134.1,168.2ZM174,122.1c-3.3,2.9-8.3,3.1-10.3,4.9s-1.5,2.5-.4,5.2,1.1,1.7-1.1,2.3-4.1,5.8-8.8,4.9c-1.8-.3-.5.8.2.9,2.6.3,3.7-.5,4.6-1.4s2.2-2.4,3.6-2.9,2.9-.5,3,.6-1.9,2.1-2.7,2.5c1,.5,3.9,1.9,1.4,3.6s-4.6-.5-4.9-.7-1.7-.2-1.3.3,5.2,1.3,4.5,2.2c-3.5,4.7-.6,7.5-1.7,12.3s-7.7,7.5-12.8,8.4c-17.4,3.1-34.3-11.6-44.2-22.8.9-2.1.8-4.8-.1-3.8s-.7,2.4-2.8,2.9c-3.9,1-5.7-5.9-6.9-7.1-4.8-4.7-6.7-11.4-3.9-17.3s9-4.7,11.4-1.1,1.7,7,3.4,8.3,4.8.2,5.4,0,1.7,4.3,8,4.1,5.9-10.7,6.9-11.6c8.6-8.4,4.2-15.9,2.6-17.6s1-3.6,1.5-3.7a13,13,0,0,0,9.4-7.7s8.4-.2,11.4-6.2c.8-1.6,3.3,1.5,8.9-2.9a.8.8,0,0,1,1.4.3c3.7,8.9,5.2,11.3,4.9,15.8s8.7,21.5,9.4,23.1S174.8,121.3,174,122.1Z"/>
        <path class="minerva-base-style" d="M153.8,90c-4.9.2-10.6,6.2-12.4,7s-1.3,1.5-.2,1.1,5.9-4.7,10.7-6.4,3.6,1.8,5,1.6S156.6,89.9,153.8,90Z"/>
        <path class="minerva-base-style" d="M154.9,94.8c-.4.1.4,2.2-1.7,2.3-4.6.3-8.3,4.7-11.1,6a12.9,12.9,0,0,1-3.8,1.4.3.3,0,0,0,.1.6c11.7,1.6,16.2,1.1,16.3.7s-.6-1.2-.4-1.7a11.3,11.3,0,0,0,.1-5.5c-.2-.8,1.8-.3,1.8-1.3S155.6,94.7,154.9,94.8Zm-1.8,9.3c-.2.9-5.5.5-8.3.2-.7,0-1.8-.1.3-1.4s4.1-2.8,7.2-3.4a.8.8,0,0,1,.8.6A10.6,10.6,0,0,1,153.1,104.1Z"/>
        <path class="minerva-base-style" d="M168.4,120.8c-.9,0-4.5,1.6-5.9,2.5s-4.4,2.7-4.2-.8c.1-1.3.9-4.4.9-5.3s-1-.7-1.1,0a36.9,36.9,0,0,1-.7,5.3c-.4,1.8,1.2,4,3.6,2.7s4.8-2.9,7.3-3.4C168.9,121.7,169,120.8,168.4,120.8Z"/>
        <path class="minerva-base-style" d="M100.5,133.6c-.7-.3-.5,1.2-1.4,1s-.2-1.3-1.8-3-2.8-1.2-4.3-3.6-.3-12,3.1-10.8,1.6,5,1,8,2.5,2.8,2.8,2.1-1.1-.9-1.4-1.9,3.5-7.6-1.8-9.4c-3.8-1.3-6.4,3.6-5.9,8.9a8,8,0,0,0,5.1,7.1c2.3.8.6,4,3.7,4C101,136,101.3,133.9,100.5,133.6Z"/>
        <path class="minerva-base-style" d="M131.3,33.4c.2.1.3,0,.5-.1l6.5-8.3a.5.5,0,0,0-.2-.6L137,24a.4.4,0,0,0-.5.1L130,32.4c-.2.2-.1.5.2.6Z"/>
        <path class="minerva-base-style" d="M119.2,30l1.1.3a.5.5,0,0,0,.5-.3l3.8-9.4a.4.4,0,0,0-.3-.6l-1.2-.2h-.3l-3.9,9.6A.4.4,0,0,0,119.2,30Z"/>
        <path class="minerva-base-style" d="M105.8,28.7h1.1c.2.1.4-.1.4-.3l1-10a.5.5,0,0,0-.4-.5h-1.1c-.3,0-.4.2-.5.4l-.9,10A.4.4,0,0,0,105.8,28.7Z"/>
        <path class="minerva-base-style" d="M92.8,29.7l1.1-.2c.2,0,.4-.2.3-.4l-1.9-9.9c0-.2-.2-.4-.4-.3H90.7c-.2.1-.4.3-.3.5l1.9,9.9C92.3,29.6,92.5,29.7,92.8,29.7Z"/>
        <path class="minerva-base-style" d="M79.4,32.8l.5.2,1.1-.4a.4.4,0,0,0,.3-.6l-4.6-9a.4.4,0,0,0-.5-.2l-1,.3a.4.4,0,0,0-.3.6Z"/>
        <path class="minerva-base-style" d="M67,38.5c.1.2.3.2.5.1l1-.6a.4.4,0,0,0,.1-.6l-6.7-7.7c-.2-.2-.4-.2-.5-.1l-1,.6c-.3.1-.3.4-.1.6Z"/>
        <path class="minerva-base-style" d="M55.4,46.7c.2.1.4.1.5-.1l.9-.7a.5.5,0,0,0,0-.7l-8.5-5.9h-.5l-.9.8a.5.5,0,0,0,0,.7Z"/>
        <path class="minerva-base-style" d="M45.4,57.1a.4.4,0,0,0,.4-.2l.8-.9c.2-.2.1-.5-.2-.6l-9.8-3.8c-.2-.1-.4-.1-.5.1l-.7.9a.4.4,0,0,0,.2.7Z"/>
        <path class="minerva-base-style" d="M26.8,67.8l10.5,1.5c.2,0,.4-.1.4-.3l.6-1a.4.4,0,0,0-.3-.6L27.5,65.9l-.5.2a5.4,5.4,0,0,1-.5,1.1A.4.4,0,0,0,26.8,67.8Z"/>
        <path class="minerva-base-style" d="M21.1,83.7l10.7-1a.3.3,0,0,0,.3-.3,7.6,7.6,0,0,0,.4-1.1.4.4,0,0,0-.4-.6l-10.8,1-.4.3-.3,1.2C20.6,83.5,20.8,83.8,21.1,83.7Z"/>
        <path class="minerva-base-style" d="M29.2,96.5c0-.4.1-.9.1-1.3s-.2-.5-.5-.4L18.4,98.4c-.2.1-.3.2-.3.4s-.1.8-.1,1.2a.4.4,0,0,0,.6.4l10.3-3.6A.3.3,0,0,0,29.2,96.5Z"/>
        <path class="minerva-base-style" d="M28.9,110.8v-1.3a.5.5,0,0,0-.7-.4l-9.4,6.3c-.2,0-.2.2-.2.4s.1.8.1,1.2a.5.5,0,0,0,.7.3l9.4-6.2C28.9,111,29,110.9,28.9,110.8Z"/>
        <path class="minerva-base-style" d="M31.3,125l-.3-1.3a.4.4,0,0,0-.7-.2L22.6,132c-.1.1-.2.3-.1.4s.3.8.4,1.2a.4.4,0,0,0,.7.2l7.6-8.4C31.3,125.3,31.3,125.2,31.3,125Z"/>
        <path class="minerva-base-style" d="M35.2,137.7,29.8,148c-.1.1,0,.3,0,.4l.7,1.2a.4.4,0,0,0,.7-.1l5.4-10.2c0-.1.1-.2,0-.4l-.6-1.2A.5.5,0,0,0,35.2,137.7Z"/>
        <path class="minerva-base-style" d="M42.9,149.3c-.2-.3-.7-.2-.7.1l-2.9,12c-.1.2,0,.3,0,.4l1,1a.4.4,0,0,0,.7-.1l2.8-11.9c.1-.1,0-.2,0-.3Z"/>
    </g>
    <g transform="translate(220 49.584982940721574)">
        <g transform="translate(0 46.00113546337226)" style="fill: #656767;">
            <path d="M2.547-28.609L10.266-28.609L17.609-7.859L24.922-28.609L32.656-28.609L32.656 0L26.750 0L26.750-7.828L27.328-21.328L19.609 0L15.563 0L7.859-21.297L8.453-7.828L8.453 0L2.547 0L2.547-28.609ZM60.688 0L58.703-6.219L48.375-6.219L46.406 0L40.141 0L50.781-28.609L56.250-28.609L66.969 0L60.688 0ZM53.516-21.375L49.969-11L57.109-11L53.516-21.375ZM78.422-28.609L83.797-18.750L89.156-28.609L95.938-28.609L87.609-14.422L96.156 0L89.297 0L83.797-10.016L78.297 0L71.438 0L79.984-14.422L71.656-28.609L78.422-28.609ZM110.219-15L110.219-10.422L99.156-10.422L99.156-15L110.219-15ZM130.625-10.219L125.453-10.219L125.453 0L119.547 0L119.547-28.609L130.719-28.609Q133.938-28.609 136.383-27.439Q138.828-26.268 140.148-24.113Q141.469-21.957 141.469-19.212L141.469-19.212Q141.469-15.041 138.586-12.630Q135.703-10.219 130.625-10.219L130.625-10.219ZM125.453-23.844L125.453-15L130.719-15Q133.063-15 134.289-16.084Q135.516-17.169 135.516-19.168L135.516-19.168Q135.516-21.244 134.273-22.521Q133.031-23.798 130.859-23.844L130.859-23.844L125.453-23.844ZM155.453-28.609L155.453-4.734L167.969-4.734L167.969 0L149.547 0L149.547-28.609L155.453-28.609ZM193.688 0L191.703-6.219L181.375-6.219L179.406 0L173.141 0L183.781-28.609L189.250-28.609L199.969 0L193.688 0ZM186.516-21.375L182.969-11L190.109-11L186.516-21.375ZM229.828-28.609L229.828 0L223.922 0L212.453-18.828L212.453 0L206.547 0L206.547-28.609L212.453-28.609L223.953-9.750L223.953-28.609L229.828-28.609ZM256.125-9.531L262.016-9.531Q261.688-4.906 258.609-2.258Q255.531 0.391 250.500 0.391L250.500 0.391Q245 0.391 241.844-3.313Q238.688-7.016 238.688-13.484L238.688-13.484L238.688-15.234Q238.688-19.359 240.141-22.500Q241.594-25.641 244.297-27.320Q247-29 250.578-29L250.578-29Q255.531-29 258.555-26.352Q261.578-23.703 262.063-18.906L262.063-18.906L256.156-18.906Q255.938-21.672 254.617-22.922Q253.297-24.172 250.578-24.172L250.578-24.172Q247.625-24.172 246.164-22.063Q244.703-19.953 244.656-15.500L244.656-15.500L244.656-13.344Q244.656-8.703 246.063-6.563Q247.469-4.422 250.500-4.422L250.500-4.422Q253.234-4.422 254.578-5.672Q255.922-6.922 256.125-9.531L256.125-9.531ZM285.859 0L278.516-11.469L275.453-8.172L275.453 0L269.547 0L269.547-28.609L275.453-28.609L275.453-15.641L278.047-19.203L285.328-28.609L292.594-28.609L282.422-15.891L292.875 0L285.859 0ZM306.219-15L306.219-10.422L295.156-10.422L295.156-15L306.219-15ZM321.828-28.609L321.828 0L315.922 0L315.922-28.609L321.828-28.609ZM354.828-28.609L354.828 0L348.922 0L337.453-18.828L337.453 0L331.547 0L331.547-28.609L337.453-28.609L348.953-9.750L348.953-28.609L354.828-28.609ZM378.391-7.500L378.391-7.500Q378.391-9.172 377.211-10.070Q376.031-10.969 372.969-11.961Q369.906-12.953 368.109-13.906L368.109-13.906Q363.234-16.547 363.234-21L363.234-21Q363.234-23.328 364.547-25.148Q365.859-26.969 368.305-27.984Q370.750-29 373.797-29L373.797-29Q376.859-29 379.258-27.891Q381.656-26.781 382.984-24.758Q384.313-22.734 384.313-20.156L384.313-20.156L378.406-20.156Q378.406-22.125 377.172-23.219Q375.938-24.313 373.688-24.313L373.688-24.313Q371.531-24.313 370.336-23.398Q369.141-22.484 369.141-20.984L369.141-20.984Q369.141-19.594 370.547-18.648Q371.953-17.703 374.672-16.875L374.672-16.875Q379.703-15.375 382.008-13.133Q384.313-10.891 384.313-7.547L384.313-7.547Q384.313-3.828 381.500-1.719Q378.688 0.391 373.938 0.391L373.938 0.391Q370.625 0.391 367.914-0.820Q365.203-2.031 363.781-4.133Q362.359-6.234 362.359-9L362.359-9L368.266-9Q368.266-4.266 373.938-4.266L373.938-4.266Q376.031-4.266 377.211-5.117Q378.391-5.969 378.391-7.500ZM414.094-28.609L414.094-23.844L405.328-23.844L405.328 0L399.438 0L399.438-23.844L390.781-23.844L390.781-28.609L414.094-28.609ZM427.828-28.609L427.828 0L421.922 0L421.922-28.609L427.828-28.609ZM458.094-28.609L458.094-23.844L449.328-23.844L449.328 0L443.438 0L443.438-23.844L434.781-23.844L434.781-28.609L458.094-28.609ZM481.297-28.609L487.203-28.609L487.203-9.766Q487.203-5.063 484.266-2.336Q481.328 0.391 476.250 0.391L476.250 0.391Q471.234 0.391 468.289-2.258Q465.344-4.906 465.281-9.547L465.281-9.547L465.281-28.609L471.172-28.609L471.172-9.734Q471.172-6.922 472.523-5.633Q473.875-4.344 476.250-4.344L476.250-4.344Q481.219-4.344 481.297-9.563L481.297-9.563L481.297-28.609ZM517.094-28.609L517.094-23.844L508.328-23.844L508.328 0L502.438 0L502.438-23.844L493.781-23.844L493.781-28.609L517.094-28.609Z"/>
        </g>
        <g transform="translate(0 83.15575581986386)" style="fill: #656767;">
            <path d="M15.422-13L15.422-10.500L5.734-10.500L5.734 0L2.688 0L2.688-23.109L17-23.109L17-20.609L5.734-20.609L5.734-13L15.422-13ZM34.891-23.109L37.953-23.109L37.953-7.391Q37.938-4.125 35.898-2.047Q33.859 0.031 30.359 0.281L30.359 0.281L29.563 0.313Q25.766 0.313 23.508-1.734Q21.250-3.781 21.219-7.359L21.219-7.359L21.219-23.109L24.234-23.109L24.234-7.453Q24.234-4.953 25.617-3.563Q27-2.172 29.563-2.172L29.563-2.172Q32.141-2.172 33.516-3.555Q34.891-4.938 34.891-7.438L34.891-7.438L34.891-23.109ZM24.609-26.781L24.609-26.781Q24.609-27.484 25.039-27.969Q25.469-28.453 26.328-28.453Q27.188-28.453 27.633-27.969Q28.078-27.484 28.078-26.773Q28.078-26.063 27.633-25.586Q27.188-25.109 26.328-25.109Q25.469-25.109 25.039-25.586Q24.609-26.063 24.609-26.781ZM31.422-26.766L31.422-26.766Q31.422-27.462 31.859-27.950Q32.297-28.438 33.156-28.438Q34.016-28.438 34.461-27.950Q34.906-27.462 34.906-26.758Q34.906-26.054 34.461-25.582Q34.016-25.109 33.156-25.109Q32.297-25.109 31.859-25.582Q31.422-26.054 31.422-26.766ZM58.172 0L53.156-9.500L47.734-9.500L47.734 0L44.672 0L44.672-23.109L52.313-23.109Q56.219-23.109 58.320-21.348Q60.422-19.587 60.422-16.235L60.422-16.235Q60.422-14.103 59.258-12.520Q58.094-10.937 56.016-10.149L56.016-10.149L61.438-0.190L61.438 0L58.172 0ZM47.734-20.609L47.734-12L52.406-12Q54.688-12 56.023-13.151Q57.359-14.302 57.359-16.236L57.359-16.236Q57.359-18.338 56.086-19.466Q54.813-20.594 52.391-20.609L52.391-20.609L47.734-20.609ZM88.172 0L83.156-9.500L77.734-9.500L77.734 0L74.672 0L74.672-23.109L82.313-23.109Q86.219-23.109 88.320-21.348Q90.422-19.587 90.422-16.235L90.422-16.235Q90.422-14.103 89.258-12.520Q88.094-10.937 86.016-10.149L86.016-10.149L91.438-0.190L91.438 0L88.172 0ZM77.734-20.609L77.734-12L82.406-12Q84.688-12 86.023-13.151Q87.359-14.302 87.359-16.236L87.359-16.236Q87.359-18.338 86.086-19.466Q84.813-20.594 82.391-20.609L82.391-20.609L77.734-20.609ZM109.750-13L109.750-10.516L99.734-10.516L99.734-2.484L111.359-2.484L111.359 0L96.688 0L96.688-23.109L111.203-23.109L111.203-20.609L99.734-20.609L99.734-13L109.750-13ZM129.625-7.328L132.688-7.328Q132.250-3.672 129.977-1.680Q127.703 0.313 123.922 0.313L123.922 0.313Q119.828 0.313 117.359-2.625Q114.891-5.563 114.891-10.469L114.891-10.469L114.891-12.703Q114.891-15.922 116.039-18.367Q117.188-20.813 119.297-22.117Q121.406-23.422 124.188-23.422L124.188-23.422Q127.875-23.422 130.094-21.367Q132.313-19.313 132.688-15.688L132.688-15.688L129.625-15.688Q129.219-18.438 127.898-19.680Q126.578-20.922 124.188-20.922L124.188-20.922Q121.266-20.922 119.609-18.766Q117.953-16.609 117.953-12.625L117.953-12.625L117.953-10.375Q117.953-6.625 119.523-4.398Q121.094-2.172 123.922-2.172L123.922-2.172Q126.453-2.172 127.813-3.320Q129.172-4.469 129.625-7.328L129.625-7.328ZM156.438-23.109L156.438 0L153.375 0L153.375-10.516L141.734-10.516L141.734 0L138.688 0L138.688-23.109L141.734-23.109L141.734-13L153.375-13L153.375-23.109L156.438-23.109ZM178.656-23.109L178.656-20.609L171.219-20.609L171.219 0L168.188 0L168.188-20.609L160.781-20.609L160.781-23.109L178.656-23.109ZM189.484-10.297L189.484-10.297Q185.578-11.422 183.789-13.070Q182-14.719 182-17.125L182-17.125Q182-19.859 184.180-21.641Q186.359-23.422 189.859-23.422L189.859-23.422Q192.234-23.422 194.102-22.508Q195.969-21.594 196.992-19.969Q198.016-18.344 198.016-16.422L198.016-16.422L194.953-16.422Q194.953-18.516 193.617-19.719Q192.281-20.922 189.859-20.922L189.859-20.922Q187.609-20.922 186.344-19.930Q185.078-18.938 185.078-17.172L185.078-17.172Q185.078-15.766 186.273-14.789Q187.469-13.813 190.352-13Q193.234-12.188 194.859-11.211Q196.484-10.234 197.273-8.938Q198.063-7.641 198.063-5.875L198.063-5.875Q198.063-3.063 195.875-1.375Q193.688 0.313 190.016 0.313L190.016 0.313Q187.641 0.313 185.570-0.602Q183.500-1.516 182.383-3.102Q181.266-4.688 181.266-6.703L181.266-6.703L184.328-6.703Q184.328-4.609 185.875-3.391Q187.422-2.172 190.016-2.172L190.016-2.172Q192.422-2.172 193.711-3.156Q195-4.141 195-5.844Q195-7.547 193.813-8.469Q192.625-9.391 189.484-10.297ZM220.750-12L220.750-3.173Q219.578-1.414 217.469-0.551Q215.359 0.313 212.578 0.313L212.578 0.313Q209.750 0.313 207.555-1.008Q205.359-2.328 204.164-4.773Q202.969-7.219 202.938-10.438L202.938-10.438L202.938-12.453Q202.938-17.688 205.375-20.555Q207.813-23.422 212.219-23.422L212.219-23.422Q215.844-23.422 218.047-21.578Q220.250-19.734 220.750-16.328L220.750-16.328L217.703-16.328Q216.844-20.922 212.234-20.922L212.234-20.922Q209.172-20.922 207.594-18.773Q206.016-16.625 206-12.531L206-12.531L206-10.656Q206-6.766 207.781-4.469Q209.563-2.172 212.594-2.172L212.594-2.172Q214.297-2.172 215.586-2.583Q216.875-2.993 217.719-3.966L217.719-3.966L217.719-9.531L212.359-9.531L212.359-12L220.750-12ZM239.750-13L239.750-10.516L229.734-10.516L229.734-2.484L241.359-2.484L241.359 0L226.688 0L226.688-23.109L241.203-23.109L241.203-20.609L229.734-20.609L229.734-13L239.750-13ZM253.484-10.297L253.484-10.297Q249.578-11.422 247.789-13.070Q246-14.719 246-17.125L246-17.125Q246-19.859 248.180-21.641Q250.359-23.422 253.859-23.422L253.859-23.422Q256.234-23.422 258.102-22.508Q259.969-21.594 260.992-19.969Q262.016-18.344 262.016-16.422L262.016-16.422L258.953-16.422Q258.953-18.516 257.617-19.719Q256.281-20.922 253.859-20.922L253.859-20.922Q251.609-20.922 250.344-19.930Q249.078-18.938 249.078-17.172L249.078-17.172Q249.078-15.766 250.273-14.789Q251.469-13.813 254.352-13Q257.234-12.188 258.859-11.211Q260.484-10.234 261.273-8.938Q262.063-7.641 262.063-5.875L262.063-5.875Q262.063-3.063 259.875-1.375Q257.688 0.313 254.016 0.313L254.016 0.313Q251.641 0.313 249.570-0.602Q247.500-1.516 246.383-3.102Q245.266-4.688 245.266-6.703L245.266-6.703L248.328-6.703Q248.328-4.609 249.875-3.391Q251.422-2.172 254.016-2.172L254.016-2.172Q256.422-2.172 257.711-3.156Q259-4.141 259-5.844Q259-7.547 257.813-8.469Q256.625-9.391 253.484-10.297ZM281.625-7.328L284.688-7.328Q284.250-3.672 281.977-1.680Q279.703 0.313 275.922 0.313L275.922 0.313Q271.828 0.313 269.359-2.625Q266.891-5.563 266.891-10.469L266.891-10.469L266.891-12.703Q266.891-15.922 268.039-18.367Q269.188-20.813 271.297-22.117Q273.406-23.422 276.188-23.422L276.188-23.422Q279.875-23.422 282.094-21.367Q284.313-19.313 284.688-15.688L284.688-15.688L281.625-15.688Q281.219-18.438 279.898-19.680Q278.578-20.922 276.188-20.922L276.188-20.922Q273.266-20.922 271.609-18.766Q269.953-16.609 269.953-12.625L269.953-12.625L269.953-10.375Q269.953-6.625 271.523-4.398Q273.094-2.172 275.922-2.172L275.922-2.172Q278.453-2.172 279.813-3.320Q281.172-4.469 281.625-7.328L281.625-7.328ZM307.438-23.109L307.438 0L304.375 0L304.375-10.516L292.734-10.516L292.734 0L289.688 0L289.688-23.109L292.734-23.109L292.734-13L304.375-13L304.375-23.109L307.438-23.109ZM317.953-23.109L317.953 0L314.906 0L314.906-23.109L317.953-23.109ZM338.625-7.328L341.688-7.328Q341.250-3.672 338.977-1.680Q336.703 0.313 332.922 0.313L332.922 0.313Q328.828 0.313 326.359-2.625Q323.891-5.563 323.891-10.469L323.891-10.469L323.891-12.703Q323.891-15.922 325.039-18.367Q326.188-20.813 328.297-22.117Q330.406-23.422 333.188-23.422L333.188-23.422Q336.875-23.422 339.094-21.367Q341.313-19.313 341.688-15.688L341.688-15.688L338.625-15.688Q338.219-18.438 336.898-19.680Q335.578-20.922 333.188-20.922L333.188-20.922Q330.266-20.922 328.609-18.766Q326.953-16.609 326.953-12.625L326.953-12.625L326.953-10.375Q326.953-6.625 328.523-4.398Q330.094-2.172 332.922-2.172L332.922-2.172Q335.453-2.172 336.813-3.320Q338.172-4.469 338.625-7.328L338.625-7.328ZM364.438-23.109L364.438 0L361.375 0L361.375-10.516L349.734-10.516L349.734 0L346.688 0L346.688-23.109L349.734-23.109L349.734-13L361.375-13L361.375-23.109L364.438-23.109ZM386.656-23.109L386.656-20.609L379.219-20.609L379.219 0L376.188 0L376.188-20.609L368.781-20.609L368.781-23.109L386.656-23.109ZM404.750-13L404.750-10.516L394.734-10.516L394.734-2.484L406.359-2.484L406.359 0L391.688 0L391.688-23.109L406.203-23.109L406.203-20.609L394.734-20.609L394.734-13L404.750-13ZM433.891-23.109L436.953-23.109L436.953-7.391Q436.938-4.125 434.898-2.047Q432.859 0.031 429.359 0.281L429.359 0.281L428.563 0.313Q424.766 0.313 422.508-1.734Q420.250-3.781 420.219-7.359L420.219-7.359L420.219-23.109L423.234-23.109L423.234-7.453Q423.234-4.953 424.617-3.563Q426-2.172 428.563-2.172L428.563-2.172Q431.141-2.172 432.516-3.555Q433.891-4.938 433.891-7.438L433.891-7.438L433.891-23.109ZM460.438-23.109L460.438 0L457.375 0L445.750-17.813L445.750 0L442.688 0L442.688-23.109L445.750-23.109L457.406-5.219L457.406-23.109L460.438-23.109ZM474.078 0L467.688 0L467.688-23.109L474.203-23.109Q477.219-23.109 479.539-21.773Q481.859-20.438 483.117-17.977Q484.375-15.516 484.391-12.328L484.391-12.328L484.391-10.859Q484.391-7.594 483.133-5.133Q481.875-2.672 479.531-1.352Q477.188-0.031 474.078 0L474.078 0ZM474.281-20.609L470.734-20.609L470.734-2.484L473.938-2.484Q477.453-2.484 479.414-4.680Q481.375-6.875 481.375-10.922L481.375-10.922L481.375-12.266Q481.375-16.203 479.531-18.391Q477.688-20.578 474.281-20.609L474.281-20.609ZM513.172 0L508.156-9.500L502.734-9.500L502.734 0L499.672 0L499.672-23.109L507.313-23.109Q511.219-23.109 513.320-21.348Q515.422-19.587 515.422-16.235L515.422-16.235Q515.422-14.103 514.258-12.520Q513.094-10.937 511.016-10.149L511.016-10.149L516.438-0.190L516.438 0L513.172 0ZM502.734-20.609L502.734-12L507.406-12Q509.688-12 511.023-13.151Q512.359-14.302 512.359-16.236L512.359-16.236Q512.359-18.338 511.086-19.466Q509.813-20.594 507.391-20.609L507.391-20.609L502.734-20.609ZM533.750-13L533.750-10.516L523.734-10.516L523.734-2.484L535.359-2.484L535.359 0L520.688 0L520.688-23.109L535.203-23.109L535.203-20.609L523.734-20.609L523.734-13L533.750-13ZM554.625-7.328L557.688-7.328Q557.250-3.672 554.977-1.680Q552.703 0.313 548.922 0.313L548.922 0.313Q544.828 0.313 542.359-2.625Q539.891-5.563 539.891-10.469L539.891-10.469L539.891-12.703Q539.891-15.922 541.039-18.367Q542.188-20.813 544.297-22.117Q546.406-23.422 549.188-23.422L549.188-23.422Q552.875-23.422 555.094-21.367Q557.313-19.313 557.688-15.688L557.688-15.688L554.625-15.688Q554.219-18.438 552.898-19.680Q551.578-20.922 549.188-20.922L549.188-20.922Q546.266-20.922 544.609-18.766Q542.953-16.609 542.953-12.625L542.953-12.625L542.953-10.375Q542.953-6.625 544.523-4.398Q546.094-2.172 548.922-2.172L548.922-2.172Q551.453-2.172 552.813-3.320Q554.172-4.469 554.625-7.328L554.625-7.328ZM580.438-23.109L580.438 0L577.375 0L577.375-10.516L565.734-10.516L565.734 0L562.688 0L562.688-23.109L565.734-23.109L565.734-13L577.375-13L577.375-23.109L580.438-23.109ZM602.656-23.109L602.656-20.609L595.219-20.609L595.219 0L592.188 0L592.188-20.609L584.781-20.609L584.781-23.109L602.656-23.109ZM614.484-10.297L614.484-10.297Q610.578-11.422 608.789-13.070Q607-14.719 607-17.125L607-17.125Q607-19.859 609.180-21.641Q611.359-23.422 614.859-23.422L614.859-23.422Q617.234-23.422 619.102-22.508Q620.969-21.594 621.992-19.969Q623.016-18.344 623.016-16.422L623.016-16.422L619.953-16.422Q619.953-18.516 618.617-19.719Q617.281-20.922 614.859-20.922L614.859-20.922Q612.609-20.922 611.344-19.930Q610.078-18.938 610.078-17.172L610.078-17.172Q610.078-15.766 611.273-14.789Q612.469-13.813 615.352-13Q618.234-12.188 619.859-11.211Q621.484-10.234 622.273-8.938Q623.063-7.641 623.063-5.875L623.063-5.875Q623.063-3.063 620.875-1.375Q618.688 0.313 615.016 0.313L615.016 0.313Q612.641 0.313 610.570-0.602Q608.500-1.516 607.383-3.102Q606.266-4.688 606.266-6.703L606.266-6.703L609.328-6.703Q609.328-4.609 610.875-3.391Q612.422-2.172 615.016-2.172L615.016-2.172Q617.422-2.172 618.711-3.156Q620-4.141 620-5.844Q620-7.547 618.813-8.469Q617.625-9.391 614.484-10.297ZM643.656-23.109L643.656-20.609L636.219-20.609L636.219 0L633.188 0L633.188-20.609L625.781-20.609L625.781-23.109L643.656-23.109ZM666.438-23.109L666.438 0L663.375 0L663.375-10.516L651.734-10.516L651.734 0L648.688 0L648.688-23.109L651.734-23.109L651.734-13L663.375-13L663.375-23.109L666.438-23.109ZM686.750-13L686.750-10.516L676.734-10.516L676.734-2.484L688.359-2.484L688.359 0L673.688 0L673.688-23.109L688.203-23.109L688.203-20.609L676.734-20.609L676.734-13L686.750-13ZM710.453-12.266L710.453-10.813Q710.453-7.406 709.313-4.875Q708.172-2.344 706.078-1.016Q703.984 0.313 701.188 0.313L701.188 0.313Q698.453 0.313 696.344-1.023Q694.234-2.359 693.070-4.844Q691.906-7.328 691.875-10.609L691.875-10.609L691.875-12.266Q691.875-15.609 693.031-18.164Q694.188-20.719 696.305-22.070Q698.422-23.422 701.156-23.422L701.156-23.422Q703.938-23.422 706.055-22.086Q708.172-20.750 709.313-18.203Q710.453-15.656 710.453-12.266L710.453-12.266ZM707.422-10.594L707.422-12.297Q707.422-16.406 705.773-18.609Q704.125-20.813 701.156-20.813L701.156-20.813Q698.266-20.813 696.609-18.609Q694.953-16.406 694.906-12.500L694.906-12.500L694.906-10.813Q694.906-6.828 696.578-4.547Q698.250-2.266 701.188-2.266L701.188-2.266Q704.141-2.266 705.758-4.422Q707.375-6.578 707.422-10.594L707.422-10.594ZM730.172 0L725.156-9.500L719.734-9.500L719.734 0L716.672 0L716.672-23.109L724.313-23.109Q728.219-23.109 730.320-21.348Q732.422-19.587 732.422-16.235L732.422-16.235Q732.422-14.103 731.258-12.520Q730.094-10.937 728.016-10.149L728.016-10.149L733.438-0.190L733.438 0L730.172 0ZM719.734-20.609L719.734-12L724.406-12Q726.688-12 728.023-13.151Q729.359-14.302 729.359-16.236L729.359-16.236Q729.359-18.338 728.086-19.466Q726.813-20.594 724.391-20.609L724.391-20.609L719.734-20.609ZM740.953-23.109L740.953 0L737.906 0L737.906-23.109L740.953-23.109ZM761.750-13L761.750-10.516L751.734-10.516L751.734-2.484L763.359-2.484L763.359 0L748.688 0L748.688-23.109L763.203-23.109L763.203-20.609L751.734-20.609L751.734-13L761.750-13Z"/>
        </g>
    </g>
</svg>