<?xml version="1.0" encoding="UTF-8"?>
<!-- Created with Inkscape (http://www.inkscape.org/) -->
<svg xmlns="http://www.w3.org/2000/svg" xmlns:cc="http://creativecommons.org/ns#" xmlns:inkscape="http://www.inkscape.org/namespaces/inkscape" xmlns:svg="http://www.w3.org/2000/svg" xmlns:rdf="http://www.w3.org/1999/02/22-rdf-syntax-ns#" xmlns:sodipodi="http://sodipodi.sourceforge.net/DTD/sodipodi-0.dtd" xmlns:dc="http://purl.org/dc/elements/1.1/" width="300" height="140" id="svg2" version="1.1" inkscape:version="0.48.2 r9819" sodipodi:docname="powered-by.svg" enable-background="new">
    <defs id="defs4">
        <inkscape:perspective sodipodi:type="inkscape:persp3d" inkscape:vp_x="0 : 35 : 1" inkscape:vp_y="0 : 1000 : 0" inkscape:vp_z="150 : 35 : 1" inkscape:persp3d-origin="75 : 23.333333 : 1" id="perspective3505"/>
    </defs>
    <sodipodi:namedview id="base" pagecolor="#ffffff" bordercolor="#666666" borderopacity="1.0" inkscape:pageopacity="0.0" inkscape:pageshadow="2" inkscape:zoom="1.979899" inkscape:cx="137.55791" inkscape:cy="54.685521" inkscape:document-units="px" inkscape:current-layer="layer1" showgrid="true" inkscape:window-width="1440" inkscape:window-height="852" inkscape:window-x="0" inkscape:window-y="0" inkscape:window-maximized="1">
        <inkscape:grid type="xygrid" id="grid2985" empspacing="5" visible="true" enabled="true" snapvisiblegridlinesonly="false"/>
    </sodipodi:namedview>
    <metadata id="metadata7">
        <rdf:RDF>
            <cc:Work rdf:about="">
                <dc:format>image/svg+xml</dc:format>
                <dc:type rdf:resource="http://purl.org/dc/dcmitype/StillImage"/>
                <dc:title/>
            </cc:Work>
        </rdf:RDF>
    </metadata>
    <g inkscape:label="Layer 1" inkscape:groupmode="layer" id="layer1" transform="translate(0,-912.36217)" style="display:inline">
        <rect style="fill:none" id="rect3579" width="300" height="139.55661" x="-2.7260654" y="913.24841" ry="5.9999986" transform="matrix(0.9999956,-0.00296755,0.00298644,0.99999554,0,0)"/>
    </g>
    <g inkscape:groupmode="layer" id="layer2" inkscape:label="text" style="display:inline">
        <g id="exist-logo" transform="matrix(0.47807439,0,0,0.47807439,13.687647,44.698669)">
            <path id="path3823" d="m 168,68.8 c 0,10.3 -8.35,18.6 -18.6,18.6 -10.3,0 -18.6,-8.35 -18.6,-18.6 0,-10.3 8.35,-18.6 18.6,-18.6 10.3,0 18.6,8.35 18.6,18.6" inkscape:connector-curvature="0" style="fill:#737577"/>
            <path id="path3825" d="m 195,63.3 c 0,5.01 -4.06,9.07 -9.08,9.07 -5.01,0 -9.07,-4.06 -9.07,-9.07 0,-5.01 4.06,-9.07 9.07,-9.07 5.01,0 9.08,4.06 9.08,9.07" inkscape:connector-curvature="0" style="fill:#858789"/>
            <path id="path3827" d="m 190,96.1 c 0,6.4 -5.19,11.6 -11.6,11.6 -6.4,0 -11.6,-5.19 -11.6,-11.6 0,-6.4 5.19,-11.6 11.6,-11.6 6.4,0 11.6,5.19 11.6,11.6" inkscape:connector-curvature="0" style="fill:#858789"/>
            <path id="path3829" d="m 125,149 c 0,8.07 -6.54,14.6 -14.6,14.6 -8.07,0 -14.6,-6.54 -14.6,-14.6 0,-8.07 6.54,-14.6 14.6,-14.6 8.07,0 14.6,6.54 14.6,14.6" inkscape:connector-curvature="0" style="fill:#858789"/>
            <path id="path3831" d="m 100,48.6 c 0,-4.18 3.38,-7.56 7.56,-7.56 4.18,0 7.56,3.38 7.56,7.56 0,4.18 -3.38,7.56 -7.56,7.56 -4.18,0 -7.56,-3.38 -7.56,-7.56" inkscape:connector-curvature="0" style="fill:#858789"/>
            <path id="path3833" d="m 123,114 c 0,2.78 -2.26,5.04 -5.04,5.04 -2.78,0 -5.04,-2.26 -5.04,-5.04 0,-2.79 2.26,-5.04 5.04,-5.04 2.78,0 5.04,2.26 5.04,5.04" inkscape:connector-curvature="0" style="fill:#858789"/>
            <path id="path3835" d="m 235,162 c 0,3.9 -3.16,7.06 -7.06,7.06 -3.9,0 -7.06,-3.16 -7.06,-7.06 0,-3.9 3.16,-7.06 7.06,-7.06 3.9,0 7.06,3.16 7.06,7.06" inkscape:connector-curvature="0" style="fill:#858789"/>
            <path id="path3837" d="m 25.2,87.7 52.2,0 C 75.5,80.5 66.1,69.9 50.1,68.6 34.4,69.4 26.7,80.3 25.2,87.7 M 5.1,96.5 c 0.185,-24.4 19.7,-44.9 45,-44.9 24,0 43,17.4 44.4,41.7 v 0.898 c 0,0.361 0,1.26 -0.184,1.62 -0.552,4.31 -4.42,7.19 -9.59,7.19 h -58.6 c 0.922,4.13 2.95,8.81 6.27,11.9 3.87,4.32 11.2,7.55 17.7,8.09 6.64,0.54 14.6,-1.08 19.2,-4.49 3.87,-3.96 11.4,-3.42 13.8,-0.539 2.4,2.52 4.24,7.91 0,11.7 -9.04,8.09 -19.9,11.9 -33,11.9 -25.3,-0.181 -44.8,-20.5 -45,-44.9" inkscape:connector-curvature="0" style="fill:#4d4c4e"/>
            <path id="path3839" d="m 259,61.6 0,70.1 c 0,5.39 -4.24,9.71 -9.96,9.71 -5.53,0 -9.96,-4.31 -9.96,-9.71 V 61.6 c 0,-5.75 4.42,-9.88 9.96,-9.88 5.72,0 9.96,4.13 9.96,9.88" inkscape:connector-curvature="0" style="fill:#4d4c4e"/>
            <path id="path3841" d="m 266,116 c 3.32,-4.31 9.77,-4.85 13.8,-1.44 4.79,3.95 13.1,8.08 20.3,7.91 4.98,0 9.59,-1.62 12.5,-3.42 2.58,-2.16 3.32,-3.96 3.32,-5.39 0,-0.899 -0.185,-1.26 -0.554,-1.8 -0.185,-0.539 -0.922,-1.26 -2.4,-2.16 -2.58,-1.8 -8.11,-3.78 -14.8,-5.03 h -0.182 c -5.72,-1.08 -11.2,-2.52 -16,-4.67 -4.98,-2.34 -9.4,-5.57 -12.7,-10.4 -2.03,-3.24 -3.13,-7.19 -3.13,-11.3 0,-8.27 4.79,-15.3 10.9,-19.8 6.45,-4.31 14.2,-6.65 22.7,-6.65 12.7,0 21.8,5.93 27.7,9.89 4.42,2.87 5.72,8.81 2.95,13.3 -2.95,4.31 -9.03,5.57 -13.6,2.52 -5.9,-3.78 -11.1,-6.65 -17,-6.65 -4.61,0 -8.66,1.44 -11.1,3.24 -2.4,1.62 -2.95,3.23 -2.95,4.13 0,0.719 0,0.899 0.369,1.44 0.184,0.36 0.738,1.08 2.03,1.8 2.4,1.62 7.19,3.24 13.5,4.31 l 0.182,0.18 h 0.186 c 6.08,1.08 11.8,2.7 17.1,5.21 4.98,2.16 9.96,5.57 13.1,10.6 2.21,3.59 3.5,7.73 3.5,11.9 0,8.81 -4.98,16.2 -11.6,20.8 -6.64,4.49 -14.9,7.19 -24,7.19 -14.4,-0.181 -25.4,-6.65 -32.8,-12.4 -4.06,-3.24 -4.61,-9.35 -1.29,-13.3" inkscape:connector-curvature="0" style="fill:#4d4c4e"/>
            <path id="path3843" d="m 385,61.4 c 0,5.39 -4.79,9.88 -10.3,9.88 h -4.61 v 50.1 c 5.72,0 10.1,4.5 10.1,10.1 0,5.57 -4.43,9.88 -10.1,9.88 -11.2,0 -20.5,-8.99 -20.5,-20 v -50.1 h -5.35 c -5.72,0 -10.1,-4.49 -10.1,-9.88 0,-5.57 4.42,-9.88 10.1,-9.88 h 5.35 V 25.4 c 0,-5.57 4.61,-9.88 10.3,-9.88 5.72,0 10.1,4.31 10.1,9.88 v 26.1 h 4.61 c 5.53,0 10.3,4.31 10.3,9.88" inkscape:connector-curvature="0" style="fill:#4d4c4e"/>
            <path id="path3845" d="m 175,119 c 0,6.12 -4.96,11.1 -11.1,11.1 -6.12,0 -11.1,-4.96 -11.1,-11.1 0,-6.12 4.96,-11.1 11.1,-11.1 6.12,0 11.1,4.97 11.1,11.1" inkscape:connector-curvature="0" style="fill:#4d4c4e"/>
            <path id="path3847" d="m 205,141 c 0,7.24 -5.87,13.1 -13.1,13.1 -7.24,0 -13.1,-5.87 -13.1,-13.1 0,-7.24 5.87,-13.1 13.1,-13.1 7.24,0 13.1,5.87 13.1,13.1" inkscape:connector-curvature="0" style="fill:#4d4c4e"/>
            <path id="path3849" d="m 120,28 c 0,4.45 -3.61,8.06 -8.07,8.06 -4.45,0 -8.06,-3.61 -8.06,-8.06 0,-4.45 3.61,-8.06 8.06,-8.06 4.46,0 8.07,3.61 8.07,8.06" inkscape:connector-curvature="0" style="fill:#4d4c4e"/>
            <path id="path3851" d="m 96.8,163 c 0,3.9 -3.16,7.06 -7.06,7.06 -3.9,0 -7.06,-3.16 -7.06,-7.06 0,-3.9 3.16,-7.06 7.06,-7.06 3.9,0 7.06,3.16 7.06,7.06" inkscape:connector-curvature="0" style="fill:#4d4c4e"/>
            <path id="path3853" d="m 187,42.6 c 0,4.18 -3.39,7.56 -7.56,7.56 -4.18,0 -7.56,-3.38 -7.56,-7.56 0,-4.18 3.38,-7.56 7.56,-7.56 4.18,0 7.56,3.38 7.56,7.56" inkscape:connector-curvature="0" style="fill:#4d4c4e"/>
            <path id="path3855" d="m 139,42.6 c 0,5.84 -4.74,10.6 -10.6,10.6 -5.84,0 -10.6,-4.74 -10.6,-10.6 0,-5.85 4.74,-10.6 10.6,-10.6 5.85,0 10.6,4.74 10.6,10.6" inkscape:connector-curvature="0" style="fill:#0088cc"/>
            <path id="path3857" d="m 126,65.3 c 0,3.9 -3.16,7.06 -7.06,7.06 -3.9,0 -7.06,-3.16 -7.06,-7.06 0,-3.9 3.16,-7.06 7.06,-7.06 3.9,0 7.06,3.16 7.06,7.06" inkscape:connector-curvature="0" style="fill:#0088cc"/>
            <path id="path3859" d="m 422,71.2 c -6.64,0 -12.7,2.7 -17.3,7.37 -4.61,4.49 -7.38,11 -7.38,18.2 0,6.83 2.76,13.3 7.38,17.8 4.61,4.67 10.7,7.37 17.3,7.37 6.82,0 12.7,-2.7 17.3,-7.37 4.61,-4.49 7.38,-11 7.38,-17.8 0,-7.19 -2.77,-13.7 -7.38,-18.2 C 434.69,73.9 428.8,71.2 422,71.2 m 44.8,60.6 c 0,5.21 -4.42,9.71 -9.96,9.71 -4.98,0 -8.85,-3.42 -9.77,-7.73 -7.01,4.67 -15.9,7.73 -25.1,7.73 -24.9,0 -44.8,-20.5 -44.8,-44.8 0,-24.6 19.9,-45.1 44.8,-45.1 9.04,0 17.9,2.88 24.7,7.55 v -33.8 c 0,-5.21 4.42,-9.71 10.1,-9.71 5.53,0 9.96,4.49 9.96,9.71 v 71.2 0.18 35 z" inkscape:connector-curvature="0" style="fill:#0088cc"/>
            <path id="path3861" d="m 493,96.7 c 0,6.83 2.77,13.3 7.38,17.8 4.61,4.67 10.5,7.37 17.3,7.37 6.64,0 12.7,-2.7 17.3,-7.37 4.61,-4.49 7.38,-11 7.38,-17.8 0,-7.19 -2.76,-13.7 -7.38,-18.2 -4.61,-4.67 -10.7,-7.37 -17.3,-7.37 -6.82,0 -12.7,2.7 -17.3,7.37 -4.61,4.49 -7.38,11 -7.38,18.2 m -20.1,0 0,-0.181 0,-71.2 c 0,-5.21 4.43,-9.7 9.96,-9.7 5.72,0 10.1,4.49 10.1,9.7 v 33.8 c 6.82,-4.67 15.7,-7.55 24.7,-7.55 24.9,0 44.8,20.5 44.8,45.1 0,24.3 -19.9,44.8 -44.8,44.8 -9.22,0 -18.1,-3.06 -25.1,-7.73 -0.921,4.31 -4.79,7.73 -9.77,7.73 -5.53,0 -9.96,-4.5 -9.96,-9.71 v -35 z" inkscape:connector-curvature="0" style="fill:#0088cc"/>
            <path id="path3863" d="m 235,23.5 c 0,4.18 -3.38,7.56 -7.56,7.56 -4.18,0 -7.56,-3.38 -7.56,-7.56 0,-4.18 3.38,-7.56 7.56,-7.56 4.18,0 7.56,3.38 7.56,7.56" inkscape:connector-curvature="0" style="fill:#0088cc"/>
            <path id="path3865" d="m 219,41.1 c 0,7.8 -6.32,14.1 -14.1,14.1 -7.8,0 -14.1,-6.32 -14.1,-14.1 0,-7.79 6.32,-14.1 14.1,-14.1 7.79,0 14.1,6.32 14.1,14.1" inkscape:connector-curvature="0" style="fill:#0088cc"/>
            <path id="path3867" d="m 148,102 c 0,5.57 -4.51,10.1 -10.1,10.1 -5.57,0 -10.1,-4.51 -10.1,-10.1 0,-5.57 4.51,-10.1 10.1,-10.1 5.57,0 10.1,4.51 10.1,10.1" inkscape:connector-curvature="0" style="fill:#0088cc"/>
            <path id="path3869" d="m 139,128 c 0,5.01 -4.06,9.07 -9.07,9.07 -5.01,0 -9.07,-4.06 -9.07,-9.07 0,-5.01 4.06,-9.07 9.07,-9.07 5.01,0 9.07,4.06 9.07,9.07" inkscape:connector-curvature="0" style="fill:#0088cc"/>
            <path id="path3871" d="m 213,116 c 0,5.01 -4.06,9.07 -9.07,9.07 -5.01,0 -9.07,-4.06 -9.07,-9.07 0,-5.01 4.06,-9.07 9.07,-9.07 5.01,0 9.07,4.06 9.07,9.07" inkscape:connector-curvature="0" style="fill:#0088cc"/>
            <path id="path3873" d="m 227,141 c 0,4.45 -3.61,8.06 -8.06,8.06 -4.45,0 -8.06,-3.61 -8.06,-8.06 0,-4.45 3.61,-8.06 8.06,-8.06 4.45,0 8.06,3.61 8.06,8.06" inkscape:connector-curvature="0" style="fill:#0088cc"/>
            <path id="path3875" d="m 98.6,24.5 c 0,2.78 -2.26,5.04 -5.04,5.04 -2.78,0 -5.04,-2.26 -5.04,-5.04 0,-2.78 2.26,-5.04 5.04,-5.04 2.78,0 5.04,2.26 5.04,5.04" inkscape:connector-curvature="0" style="fill:#0088cc"/>
            <path id="path3877" d="m 96.8,10.9 c 0,2.78 -2.26,5.04 -5.04,5.04 -2.78,0 -5.04,-2.26 -5.04,-5.04 0,-2.78 2.26,-5.04 5.04,-5.04 2.78,0 5.04,2.26 5.04,5.04" inkscape:connector-curvature="0" style="fill:#0088cc"/>
            <path id="path3879" d="m 113,124 c 0,3.34 -2.71,6.05 -6.05,6.05 -3.34,0 -6.05,-2.71 -6.05,-6.05 0,-3.34 2.71,-6.05 6.05,-6.05 3.34,0 6.05,2.71 6.05,6.05" inkscape:connector-curvature="0" style="fill:#0088cc"/>
        </g>
        <text xml:space="preserve" style="font-size:36px;font-style:italic;font-variant:normal;font-weight:normal;font-stretch:normal;text-align:start;line-height:125%;letter-spacing:0px;word-spacing:0px;writing-mode:lr-tb;text-anchor:start;fill:#4d4c4e;fill-opacity:1;stroke:none;font-family:Corbel;-inkscape-font-specification:Corbel Italic" x="19.213203" y="38.802002" id="powered" sodipodi:linespacing="125%">
            <tspan sodipodi:role="line" id="tspan3920" x="19.213203" y="38.802002">powered by</tspan>
        </text>
    </g>
</svg>